/* XPM */
static char *_bbedc704a3145f3c5c1ac82ae74a5f6qf5G4xDzrLDUjCOe[] = {
/* columns rows colors chars-per-pixel */
"32 32 180 2 ",
"   c #010101",
".  c #040A0A",
"X  c #0C0C0C",
"o  c #0D1313",
"O  c #151515",
"+  c #131919",
"@  c #1D1D1D",
"#  c #222323",
"$  c #252C2C",
"%  c #2C2D2D",
"&  c #2B3737",
"*  c #333434",
"=  c #3C3C3C",
"-  c #753A21",
";  c #7E452B",
":  c #464646",
">  c #4A4A4A",
",  c #555555",
"<  c #585151",
"1  c #5C5B5B",
"2  c #615A5A",
"3  c #705B5B",
"4  c #686767",
"5  c #6D6D6D",
"6  c #786767",
"7  c #6E7474",
"8  c #727272",
"9  c #7B7B7B",
"0  c #82361E",
"q  c #AD2917",
"w  c #A83419",
"e  c #B7361C",
"r  c #823B22",
"t  c #B33E26",
"y  c #D40401",
"u  c #DD0000",
"i  c #D50A05",
"p  c #DE0906",
"a  c #D60E0B",
"s  c #DD0B0B",
"d  c #CB1308",
"f  c #D61409",
"g  c #DA130C",
"h  c #C41A10",
"j  c #DE1212",
"k  c #D31B13",
"l  c #DF1A1A",
"z  c #E00202",
"x  c #E20D0D",
"c  c #E41616",
"v  c #E31C1C",
"b  c #C7200F",
"n  c #C72517",
"m  c #CB2819",
"M  c #DF2121",
"N  c #CA3B25",
"B  c #D83C30",
"V  c #E42323",
"C  c #E42A2A",
"Z  c #E43333",
"A  c #E53B3B",
"S  c #99471E",
"D  c #85492C",
"F  c #9D4523",
"G  c #974B22",
"H  c #9E4A23",
"J  c #96512B",
"K  c #9A4F31",
"L  c #945435",
"P  c #9D5636",
"I  c #92593A",
"U  c #9E5D3E",
"Y  c #A24523",
"T  c #A14B2A",
"R  c #A25A2E",
"E  c #B7502F",
"W  c #B54E3B",
"Q  c #A75A35",
"!  c #A25D3D",
"~  c #AB5D3C",
"^  c #BE5035",
"/  c #B45E3C",
"(  c #BD632E",
")  c #AE613F",
"_  c #B36231",
"`  c #BC6431",
"'  c #B5623E",
"]  c #BA623E",
"[  c #BA6B3E",
"{  c #C24923",
"}  c #C44835",
"|  c #D15C37",
" . c #C06632",
".. c #C46A36",
"X. c #C26339",
"o. c #C66E3A",
"O. c #B25A40",
"+. c #9F6345",
"@. c #A46644",
"#. c #AC6443",
"$. c #AD6A45",
"%. c #A4664C",
"&. c #AB6B49",
"*. c #B16444",
"=. c #B96444",
"-. c #B36B45",
";. c #BA6B43",
":. c #B9654D",
">. c #B46F4B",
",. c #B96E49",
"<. c #B67048",
"1. c #BA744D",
"2. c #AA6F56",
"3. c #B97353",
"4. c #8D6A6A",
"5. c #936666",
"6. c #8A7676",
"7. c #A06C6C",
"8. c #B26B6B",
"9. c #A37676",
"0. c #B57474",
"q. c #DD5D5D",
"w. c #E54242",
"e. c #E64C4C",
"r. c #E45252",
"t. c #E95A5A",
"y. c #CA6947",
"u. c #C27143",
"i. c #CD7445",
"p. c #C67448",
"a. c #D27646",
"s. c #D17748",
"d. c #C4745C",
"f. c #D0785F",
"g. c #C56B6B",
"h. c #D56666",
"j. c #CA7D65",
"k. c #D17A7A",
"l. c #E16464",
"z. c #EA6565",
"x. c #EA6868",
"c. c #E67979",
"v. c #EC7C7C",
"b. c #7F8484",
"n. c #858585",
"m. c #8C8C8C",
"M. c #959595",
"N. c gray60",
"B. c #A48A8A",
"V. c #A2A2A2",
"C. c #ABABAB",
"Z. c #B1B1B1",
"A. c #BDBDBD",
"S. c #ED8181",
"D. c #EA8D8D",
"F. c #EF9191",
"G. c #F09191",
"H. c #F19D9D",
"J. c #D7B6B6",
"K. c #F2A6A6",
"L. c #F3A9A9",
"P. c #F5B8B8",
"I. c #BCC1C1",
"U. c #C2C2C2",
"Y. c #CCCCCC",
"T. c #D3D3D3",
"R. c #DDDDDD",
"E. c #F7C3C3",
"W. c #F8CACA",
"Q. c #E5DBDB",
"!. c #F9D2D2",
"~. c #FADBDB",
"^. c #E3E3E3",
"/. c #ECECEC",
"(. c #FBE6E6",
"). c #FCECEC",
"_. c #F3F3F3",
"`. c #FDF3F3",
"'. c #F7F9F9",
"]. c #FEFEFE",
/* pixels */
"( `  .R _ ( ( ` _ E g u u u u u u u u p v.].].].].].].].].].].].",
"G U #.! ! Q L P T h z u u u z u u u u e.(.].].].].].].].].].].!.",
"S ! =.] ' ' L Y b z u u u u u u u u Z W.].].].].].].].].].].~.e.",
"; ; D D I L D q y u u u z u u u u l L.].].].].].].].].].].).z.u ",
"r r 0 - J H w i u u u u u u u u p S.].].].].].].].].].].].F.s u ",
"r - D ; J F d u u u u u u u u u t.).].].].'.].].].].].].P.l u u ",
"Y +.#.#.' n y u u u u s C w.r.l.J.U.Z.N.9 5 Y.].].].].!.Z u u u ",
"Y P ~ Q N c A r.h.c.L.E.J.6 < = % # + X   . V.].].].).t.u u u u ",
"T H H w y w.B.1 = b.].].A.X                 m.].].'.S.s u u u u ",
"w Y w a u A 3 .   , _.].Y.@     X # % = , 4 A.].].K.l u u u u u ",
"G K n u u Z 4.o   : ^.].R.*     8 A.Y.R._.'.].].W.C u u u u u u ",
"F e p u u C 7.+   = T.].^.>   X N.].].].].].].(.e.u u u u u u u ",
"q y u u u v 8.@   $ Y.]./.,   . 9 /.^.^.Y.J.I.D.s u u u u u u z ",
"a u u u u x g.#   @ Z./.Y.1     * 4 > = # X $ 0.x u u u u u u u ",
"u u u u u z h.%   . = : * O                 o 0.x u u u u u u u ",
"u u u u u u q.:                     X X .   . 9.c u u u u u u f ",
"u u u u u u r.,       X O O     X 1 n.M.*     6.V u u u u u f { ",
"u u u u u u w.6.: 1 5 n.V.M.#   @ U.]._.2   . 6 A u u u u y t $.",
"u u u u u u z.Q.^._.].].].T.*   + C.]._.8 . . 2 e.y u u u m Q *.",
"u u u u u A !.].].].].].'.T.=   X M.].'.m.    > t.u u u m / ! #.",
"u u u u M P.].'.^.Y.A.N.n.1 @     6.].].C.    % h.u u k O.y.y.y.",
"z u u p G.].].Q.> # X .           5 ].].A.o . & k.u a W ) ' *.=.",
"u u u x.).].].^.#             . o 7 '.].Q.6.5.0.l.x { y.] ] #.>.",
"u u e.~.].].]._.> O # * , 5 6.9.0.k.c.t.w.C V v s n X.X.X.X.~ #.",
"u C P.].].].].'.J.I.R./._.^.t.c x x p u u u u z k ] ;.' +.>.$.-.",
"j H.].].].].].].].].].].`.c.p u u u u u u u u f | i.a.p.$.s.a.a.",
"S.`.].].].].].].'.].].].H.c u u u u u u u u i } 1.$.1.,.$.[ -.1.",
"`.].].].].].].].].].].E.v u u u u u u u u u B f.j.%.p.i.i.p.>.p.",
"].].].].].].].].].].~.w.u u u z u u u u z m :.d.3.@.[ [ <.p.&.1.",
"].].].].].].].].].).x.p u u u u u u u u k ^ #.u.o.....` 2.j.j.j.",
"].].].].].].].].].G.s u u u u u z u u i t O.! _ (  .` _ %.d.3.d.",
"].].].].].].].].P.v u u u u u u u u z q %.%.+.! U @.3.,.-.,.&.1."
};
